<mxfile host="Electron" modified="2023-10-11T23:40:54.955Z" agent="Mozilla/5.0 (Macintosh; Intel Mac OS X 10_15_7) AppleWebKit/537.36 (KHTML, like Gecko) draw.io/22.0.2 Chrome/114.0.5735.289 Electron/25.8.4 Safari/537.36" etag="v9ZGgZboNr3s5ovHeaSL" version="22.0.2" type="device">
  <diagram name="Page-1" id="2YBvvXClWsGukQMizWep">
    <mxGraphModel dx="1114" dy="999" grid="1" gridSize="10" guides="1" tooltips="1" connect="1" arrows="1" fold="1" page="1" pageScale="1" pageWidth="850" pageHeight="1100" math="0" shadow="0">
      <root>
        <mxCell id="0" />
        <mxCell id="1" parent="0" />
        <mxCell id="oOzzj28w0oqTpEVC-PLE-1" value="SDL event, getkeyupdown held etc" style="rounded=0;whiteSpace=wrap;html=1;" vertex="1" parent="1">
          <mxGeometry x="320" y="190" width="120" height="60" as="geometry" />
        </mxCell>
        <mxCell id="oOzzj28w0oqTpEVC-PLE-10" style="edgeStyle=orthogonalEdgeStyle;rounded=0;orthogonalLoop=1;jettySize=auto;html=1;entryX=0.5;entryY=1;entryDx=0;entryDy=0;" edge="1" parent="1" source="oOzzj28w0oqTpEVC-PLE-2" target="oOzzj28w0oqTpEVC-PLE-4">
          <mxGeometry relative="1" as="geometry" />
        </mxCell>
        <mxCell id="oOzzj28w0oqTpEVC-PLE-2" value="Lua Player" style="rounded=0;whiteSpace=wrap;html=1;" vertex="1" parent="1">
          <mxGeometry x="210" y="800" width="120" height="60" as="geometry" />
        </mxCell>
        <mxCell id="oOzzj28w0oqTpEVC-PLE-5" value="" style="edgeStyle=orthogonalEdgeStyle;rounded=0;orthogonalLoop=1;jettySize=auto;html=1;" edge="1" parent="1" source="oOzzj28w0oqTpEVC-PLE-3" target="oOzzj28w0oqTpEVC-PLE-4">
          <mxGeometry relative="1" as="geometry" />
        </mxCell>
        <mxCell id="oOzzj28w0oqTpEVC-PLE-7" value="" style="edgeStyle=orthogonalEdgeStyle;rounded=0;orthogonalLoop=1;jettySize=auto;html=1;" edge="1" parent="1" source="oOzzj28w0oqTpEVC-PLE-3" target="oOzzj28w0oqTpEVC-PLE-6">
          <mxGeometry relative="1" as="geometry" />
        </mxCell>
        <mxCell id="oOzzj28w0oqTpEVC-PLE-9" value="" style="edgeStyle=orthogonalEdgeStyle;rounded=0;orthogonalLoop=1;jettySize=auto;html=1;" edge="1" parent="1" source="oOzzj28w0oqTpEVC-PLE-3" target="oOzzj28w0oqTpEVC-PLE-8">
          <mxGeometry relative="1" as="geometry" />
        </mxCell>
        <mxCell id="oOzzj28w0oqTpEVC-PLE-3" value="PlayerController" style="rounded=0;whiteSpace=wrap;html=1;" vertex="1" parent="1">
          <mxGeometry x="210" y="560" width="120" height="60" as="geometry" />
        </mxCell>
        <mxCell id="oOzzj28w0oqTpEVC-PLE-4" value="BindUpFuncs()&lt;br&gt;BindDownFuncs()" style="rounded=0;whiteSpace=wrap;html=1;" vertex="1" parent="1">
          <mxGeometry x="210" y="660" width="120" height="60" as="geometry" />
        </mxCell>
        <mxCell id="oOzzj28w0oqTpEVC-PLE-6" value="Check if Key is held, pressed, released, etc" style="rounded=0;whiteSpace=wrap;html=1;" vertex="1" parent="1">
          <mxGeometry x="30" y="560" width="120" height="60" as="geometry" />
        </mxCell>
        <mxCell id="oOzzj28w0oqTpEVC-PLE-8" value="Map of all buttons and controls" style="rounded=0;whiteSpace=wrap;html=1;" vertex="1" parent="1">
          <mxGeometry x="365" y="560" width="120" height="60" as="geometry" />
        </mxCell>
        <mxCell id="oOzzj28w0oqTpEVC-PLE-11" value="Creates functions and binds to the controlllers bind functions" style="text;html=1;align=center;verticalAlign=middle;resizable=0;points=[];autosize=1;strokeColor=none;fillColor=none;" vertex="1" parent="1">
          <mxGeometry x="20" y="890" width="340" height="30" as="geometry" />
        </mxCell>
        <mxCell id="oOzzj28w0oqTpEVC-PLE-12" value="Controller should be placed onto objects" style="text;html=1;align=center;verticalAlign=middle;resizable=0;points=[];autosize=1;strokeColor=none;fillColor=none;" vertex="1" parent="1">
          <mxGeometry x="170" y="448" width="240" height="30" as="geometry" />
        </mxCell>
        <mxCell id="oOzzj28w0oqTpEVC-PLE-13" value="" style="endArrow=none;dashed=1;html=1;rounded=0;" edge="1" parent="1">
          <mxGeometry width="50" height="50" relative="1" as="geometry">
            <mxPoint y="430" as="sourcePoint" />
            <mxPoint x="580" y="430" as="targetPoint" />
          </mxGeometry>
        </mxCell>
        <mxCell id="oOzzj28w0oqTpEVC-PLE-14" value="C" style="text;html=1;align=center;verticalAlign=middle;resizable=0;points=[];autosize=1;strokeColor=none;fillColor=none;" vertex="1" parent="1">
          <mxGeometry x="110" y="150" width="30" height="30" as="geometry" />
        </mxCell>
        <mxCell id="oOzzj28w0oqTpEVC-PLE-15" value="Lua" style="text;html=1;align=center;verticalAlign=middle;resizable=0;points=[];autosize=1;strokeColor=none;fillColor=none;" vertex="1" parent="1">
          <mxGeometry x="50" y="448" width="40" height="30" as="geometry" />
        </mxCell>
        <mxCell id="oOzzj28w0oqTpEVC-PLE-21" value="" style="edgeStyle=orthogonalEdgeStyle;rounded=0;orthogonalLoop=1;jettySize=auto;html=1;" edge="1" parent="1" source="oOzzj28w0oqTpEVC-PLE-16" target="oOzzj28w0oqTpEVC-PLE-20">
          <mxGeometry relative="1" as="geometry" />
        </mxCell>
        <mxCell id="oOzzj28w0oqTpEVC-PLE-16" value="AiController" style="whiteSpace=wrap;html=1;" vertex="1" parent="1">
          <mxGeometry x="530" y="560" width="120" height="60" as="geometry" />
        </mxCell>
        <mxCell id="oOzzj28w0oqTpEVC-PLE-19" value="" style="edgeStyle=orthogonalEdgeStyle;rounded=0;orthogonalLoop=1;jettySize=auto;html=1;" edge="1" parent="1" source="oOzzj28w0oqTpEVC-PLE-17" target="oOzzj28w0oqTpEVC-PLE-18">
          <mxGeometry relative="1" as="geometry" />
        </mxCell>
        <mxCell id="oOzzj28w0oqTpEVC-PLE-17" value="LuaPlayer" style="whiteSpace=wrap;html=1;" vertex="1" parent="1">
          <mxGeometry x="530" y="800" width="120" height="60" as="geometry" />
        </mxCell>
        <mxCell id="oOzzj28w0oqTpEVC-PLE-22" style="edgeStyle=orthogonalEdgeStyle;rounded=0;orthogonalLoop=1;jettySize=auto;html=1;entryX=0.5;entryY=1;entryDx=0;entryDy=0;" edge="1" parent="1" source="oOzzj28w0oqTpEVC-PLE-18" target="oOzzj28w0oqTpEVC-PLE-16">
          <mxGeometry relative="1" as="geometry" />
        </mxCell>
        <mxCell id="oOzzj28w0oqTpEVC-PLE-18" value="BindUpFuncs()&lt;br&gt;BindDownFuncs()" style="whiteSpace=wrap;html=1;" vertex="1" parent="1">
          <mxGeometry x="530" y="660" width="120" height="60" as="geometry" />
        </mxCell>
        <mxCell id="oOzzj28w0oqTpEVC-PLE-20" value="Logic to Simulate keypresses" style="whiteSpace=wrap;html=1;" vertex="1" parent="1">
          <mxGeometry x="700" y="560" width="120" height="60" as="geometry" />
        </mxCell>
        <mxCell id="oOzzj28w0oqTpEVC-PLE-23" value="Input" style="text;html=1;align=center;verticalAlign=middle;resizable=0;points=[];autosize=1;strokeColor=none;fillColor=none;" vertex="1" parent="1">
          <mxGeometry x="355" y="138" width="50" height="30" as="geometry" />
        </mxCell>
        <mxCell id="oOzzj28w0oqTpEVC-PLE-24" value="Controller" style="text;html=1;align=center;verticalAlign=middle;resizable=0;points=[];autosize=1;strokeColor=none;fillColor=none;" vertex="1" parent="1">
          <mxGeometry x="345" y="300" width="80" height="30" as="geometry" />
        </mxCell>
        <mxCell id="oOzzj28w0oqTpEVC-PLE-25" value="Bind Funcs" style="whiteSpace=wrap;html=1;" vertex="1" parent="1">
          <mxGeometry x="325" y="340" width="120" height="60" as="geometry" />
        </mxCell>
      </root>
    </mxGraphModel>
  </diagram>
</mxfile>
